solid CATIA STL
  facet normal  0.000000e+000  0.000000e+000 -9.999999e-001
    outer loop
      vertex -1.417380e+001 -1.493288e+002  6.222800e-014
      vertex  1.617601e+001 -1.491252e+002  6.222800e-014
      vertex  1.006266e+000 -1.499966e+002  6.222800e-014
    endloop
  endfacet
  facet normal  0.000000e+000  0.000000e+000 -1.000000e+000
    outer loop
      vertex  1.617601e+001 -1.491252e+002  6.222800e-014
      vertex -1.417380e+001 -1.493288e+002  6.222800e-014
      vertex  3.117977e+001 -1.467236e+002  6.222800e-014
    endloop
  endfacet
  facet normal  0.000000e+000  0.000000e+000 -1.000000e+000
    outer loop
      vertex  3.117977e+001 -1.467236e+002  6.222800e-014
      vertex -1.417380e+001 -1.493288e+002  6.222800e-014
      vertex -2.920843e+001 -1.471287e+002  6.222800e-014
    endloop
  endfacet
  facet normal  0.000000e+000  0.000000e+000 -1.000000e+000
    outer loop
      vertex  3.117977e+001 -1.467236e+002  6.222800e-014
      vertex -2.920843e+001 -1.471287e+002  6.222800e-014
      vertex  4.586357e+001 -1.428164e+002  6.222800e-014
    endloop
  endfacet
  facet normal  0.000000e+000  0.000000e+000 -1.000000e+000
    outer loop
      vertex  4.586357e+001 -1.428164e+002  6.222800e-014
      vertex -2.920843e+001 -1.471287e+002  6.222800e-014
      vertex -4.394334e+001 -1.434189e+002  6.222800e-014
    endloop
  endfacet
  facet normal  0.000000e+000  0.000000e+000 -1.000000e+000
    outer loop
      vertex  4.586357e+001 -1.428164e+002  6.222800e-014
      vertex -4.394334e+001 -1.434189e+002  6.222800e-014
      vertex  6.007676e+001 -1.374437e+002  6.222800e-014
    endloop
  endfacet
  facet normal  0.000000e+000  0.000000e+000 -1.000000e+000
    outer loop
      vertex  6.007676e+001 -1.374437e+002  6.222800e-014
      vertex -4.394334e+001 -1.434189e+002  6.222800e-014
      vertex -5.822733e+001 -1.382374e+002  6.222800e-014
    endloop
  endfacet
  facet normal  0.000000e+000  0.000000e+000 -1.000000e+000
    outer loop
      vertex  6.007676e+001 -1.374437e+002  6.222800e-014
      vertex -5.822733e+001 -1.382374e+002  6.222800e-014
      vertex  7.367348e+001 -1.306607e+002  6.222800e-014
    endloop
  endfacet
  facet normal  0.000000e+000  0.000000e+000 -9.999999e-001
    outer loop
      vertex  7.367348e+001 -1.306607e+002  6.222800e-014
      vertex -5.822733e+001 -1.382374e+002  6.222800e-014
      vertex -7.191383e+001 -1.316374e+002  6.222800e-014
    endloop
  endfacet
  facet normal  0.000000e+000  0.000000e+000 -1.000000e+000
    outer loop
      vertex  7.367348e+001 -1.306607e+002  6.222800e-014
      vertex -7.191383e+001 -1.316374e+002  6.222800e-014
      vertex  8.651421e+001 -1.225369e+002  6.222800e-014
    endloop
  endfacet
  facet normal  0.000000e+000  0.000000e+000 -1.000000e+000
    outer loop
      vertex  8.651421e+001 -1.225369e+002  6.222800e-014
      vertex -7.191383e+001 -1.316374e+002  6.222800e-014
      vertex -8.486240e+001 -1.236866e+002  6.222800e-014
    endloop
  endfacet
  facet normal  0.000000e+000  0.000000e+000 -1.000000e+000
    outer loop
      vertex  8.651421e+001 -1.225369e+002  6.222800e-014
      vertex -8.486240e+001 -1.236866e+002  6.222800e-014
      vertex  9.846719e+001 -1.131557e+002  6.222800e-014
    endloop
  endfacet
  facet normal  0.000000e+000  0.000000e+000 -1.000000e+000
    outer loop
      vertex  9.846719e+001 -1.131557e+002  6.222800e-014
      vertex -8.486240e+001 -1.236866e+002  6.222800e-014
      vertex -9.694016e+001 -1.144666e+002  6.222800e-014
    endloop
  endfacet
  facet normal  0.000000e+000  0.000000e+000 -1.000000e+000
    outer loop
      vertex  9.846719e+001 -1.131557e+002  6.222800e-014
      vertex -9.694016e+001 -1.144666e+002  6.222800e-014
      vertex  1.094098e+002 -1.026134e+002  6.222800e-014
    endloop
  endfacet
  facet normal  0.000000e+000  0.000000e+000 -1.000000e+000
    outer loop
      vertex  1.094098e+002 -1.026134e+002  6.222800e-014
      vertex -9.694016e+001 -1.144666e+002  6.222800e-014
      vertex -1.080232e+002 -1.040720e+002  6.222800e-014
    endloop
  endfacet
  facet normal  0.000000e+000  0.000000e+000 -1.000000e+000
    outer loop
      vertex  1.094098e+002 -1.026134e+002  6.222800e-014
      vertex -1.080232e+002 -1.040720e+002  6.222800e-014
      vertex  1.192296e+002 -9.101810e+001  6.222800e-014
    endloop
  endfacet
  facet normal  0.000000e+000  0.000000e+000 -1.000000e+000
    outer loop
      vertex  1.192296e+002 -9.101810e+001  6.222800e-014
      vertex -1.080232e+002 -1.040720e+002  6.222800e-014
      vertex -1.179977e+002 -9.260957e+001  6.222800e-014
    endloop
  endfacet
  facet normal  0.000000e+000  0.000000e+000 -1.000000e+000
    outer loop
      vertex  1.192296e+002 -9.101810e+001  6.222800e-014
      vertex -1.179977e+002 -9.260957e+001  6.222800e-014
      vertex  1.278260e+002 -7.848885e+001  6.222800e-014
    endloop
  endfacet
  facet normal  0.000000e+000  0.000000e+000 -1.000000e+000
    outer loop
      vertex  1.278260e+002 -7.848885e+001  6.222800e-014
      vertex -1.179977e+002 -9.260957e+001  6.222800e-014
      vertex -1.267615e+002 -8.019678e+001  6.222800e-014
    endloop
  endfacet
  facet normal  0.000000e+000  0.000000e+000 -9.999999e-001
    outer loop
      vertex  1.278260e+002 -7.848885e+001  6.222800e-014
      vertex -1.267615e+002 -8.019678e+001  6.222800e-014
      vertex  1.351108e+002 -6.515421e+001  6.222800e-014
    endloop
  endfacet
  facet normal  0.000000e+000  0.000000e+000 -1.000000e+000
    outer loop
      vertex  1.351108e+002 -6.515421e+001  6.222800e-014
      vertex -1.267615e+002 -8.019678e+001  6.222800e-014
      vertex -1.342245e+002 -6.696107e+001  6.222800e-014
    endloop
  endfacet
  facet normal  0.000000e+000  0.000000e+000 -1.000000e+000
    outer loop
      vertex  1.351108e+002 -6.515421e+001  6.222800e-014
      vertex -1.342245e+002 -6.696107e+001  6.222800e-014
      vertex  1.410091e+002 -5.115099e+001  6.222800e-014
    endloop
  endfacet
  facet normal  0.000000e+000  0.000000e+000 -1.000000e+000
    outer loop
      vertex  1.410091e+002 -5.115099e+001  6.222800e-014
      vertex -1.342245e+002 -6.696107e+001  6.222800e-014
      vertex -1.403102e+002 -5.303824e+001  6.222800e-014
    endloop
  endfacet
  facet normal  0.000000e+000  0.000000e+000 -9.999999e-001
    outer loop
      vertex  1.410091e+002 -5.115099e+001  6.222800e-014
      vertex -1.403102e+002 -5.303824e+001  6.222800e-014
      vertex  1.454605e+002 -3.662289e+001  6.222800e-014
    endloop
  endfacet
  facet normal  0.000000e+000  0.000000e+000 -1.000000e+000
    outer loop
      vertex  1.454605e+002 -3.662289e+001  6.222800e-014
      vertex -1.403102e+002 -5.303824e+001  6.222800e-014
      vertex -1.449561e+002 -3.857118e+001  6.222800e-014
    endloop
  endfacet
  facet normal  0.000000e+000  0.000000e+000 -1.000000e+000
    outer loop
      vertex  1.454605e+002 -3.662289e+001  6.222800e-014
      vertex -1.449561e+002 -3.857118e+001  6.222800e-014
      vertex  1.484193e+002 -2.171899e+001  6.222800e-014
    endloop
  endfacet
  facet normal  0.000000e+000  0.000000e+000 -1.000000e+000
    outer loop
      vertex  1.484193e+002 -2.171899e+001  6.222800e-014
      vertex -1.449561e+002 -3.857118e+001  6.222800e-014
      vertex -1.481145e+002 -2.370832e+001  6.222800e-014
    endloop
  endfacet
  facet normal  0.000000e+000  0.000000e+000 -1.000000e+000
    outer loop
      vertex  1.484193e+002 -2.171899e+001  6.222800e-014
      vertex -1.481145e+002 -2.370832e+001  6.222800e-014
      vertex  1.498551e+002 -6.592229e+000  6.222800e-014
    endloop
  endfacet
  facet normal  0.000000e+000  0.000000e+000 -1.000000e+000
    outer loop
      vertex  1.498551e+002 -6.592229e+000  6.222800e-014
      vertex -1.481145e+002 -2.370832e+001  6.222800e-014
      vertex -1.497531e+002 -8.602180e+000  6.222800e-014
    endloop
  endfacet
  facet normal  0.000000e+000  0.000000e+000 -1.000000e+000
    outer loop
      vertex  1.498551e+002 -6.592229e+000  6.222800e-014
      vertex -1.497531e+002 -8.602180e+000  6.222800e-014
      vertex  1.497531e+002  8.602180e+000  6.222800e-014
    endloop
  endfacet
  facet normal  0.000000e+000  0.000000e+000 -1.000000e+000
    outer loop
      vertex  1.497531e+002  8.602180e+000  6.222800e-014
      vertex -1.497531e+002 -8.602180e+000  6.222800e-014
      vertex -1.498551e+002  6.592229e+000  6.222800e-014
    endloop
  endfacet
  facet normal  0.000000e+000  0.000000e+000 -1.000000e+000
    outer loop
      vertex  1.497531e+002  8.602180e+000  6.222800e-014
      vertex -1.498551e+002  6.592229e+000  6.222800e-014
      vertex  1.481145e+002  2.370832e+001  6.222800e-014
    endloop
  endfacet
  facet normal  0.000000e+000  0.000000e+000 -1.000000e+000
    outer loop
      vertex  1.481145e+002  2.370832e+001  6.222800e-014
      vertex -1.498551e+002  6.592229e+000  6.222800e-014
      vertex -1.484193e+002  2.171899e+001  6.222800e-014
    endloop
  endfacet
  facet normal  0.000000e+000  0.000000e+000 -1.000000e+000
    outer loop
      vertex  1.481145e+002  2.370832e+001  6.222800e-014
      vertex -1.484193e+002  2.171899e+001  6.222800e-014
      vertex  1.449561e+002  3.857118e+001  6.222800e-014
    endloop
  endfacet
  facet normal  0.000000e+000  0.000000e+000 -1.000000e+000
    outer loop
      vertex  1.449561e+002  3.857118e+001  6.222800e-014
      vertex -1.484193e+002  2.171899e+001  6.222800e-014
      vertex -1.454605e+002  3.662289e+001  6.222800e-014
    endloop
  endfacet
  facet normal  0.000000e+000  0.000000e+000 -1.000000e+000
    outer loop
      vertex  1.449561e+002  3.857118e+001  6.222800e-014
      vertex -1.454605e+002  3.662289e+001  6.222800e-014
      vertex  1.403102e+002  5.303824e+001  6.222800e-014
    endloop
  endfacet
  facet normal  0.000000e+000  0.000000e+000 -9.999999e-001
    outer loop
      vertex  1.403102e+002  5.303824e+001  6.222800e-014
      vertex -1.454605e+002  3.662289e+001  6.222800e-014
      vertex -1.410091e+002  5.115099e+001  6.222800e-014
    endloop
  endfacet
  facet normal  0.000000e+000  0.000000e+000 -1.000000e+000
    outer loop
      vertex  1.403102e+002  5.303824e+001  6.222800e-014
      vertex -1.410091e+002  5.115099e+001  6.222800e-014
      vertex  1.342245e+002  6.696107e+001  6.222800e-014
    endloop
  endfacet
  facet normal  0.000000e+000  0.000000e+000 -1.000000e+000
    outer loop
      vertex  1.342245e+002  6.696107e+001  6.222800e-014
      vertex -1.410091e+002  5.115099e+001  6.222800e-014
      vertex -1.351108e+002  6.515421e+001  6.222800e-014
    endloop
  endfacet
  facet normal  0.000000e+000  0.000000e+000 -1.000000e+000
    outer loop
      vertex  1.342245e+002  6.696107e+001  6.222800e-014
      vertex -1.351108e+002  6.515421e+001  6.222800e-014
      vertex  1.267615e+002  8.019678e+001  6.222800e-014
    endloop
  endfacet
  facet normal  0.000000e+000  0.000000e+000 -9.999999e-001
    outer loop
      vertex  1.267615e+002  8.019678e+001  6.222800e-014
      vertex -1.351108e+002  6.515421e+001  6.222800e-014
      vertex -1.278260e+002  7.848885e+001  6.222800e-014
    endloop
  endfacet
  facet normal  0.000000e+000  0.000000e+000 -1.000000e+000
    outer loop
      vertex  1.267615e+002  8.019678e+001  6.222800e-014
      vertex -1.278260e+002  7.848885e+001  6.222800e-014
      vertex  1.179977e+002  9.260957e+001  6.222800e-014
    endloop
  endfacet
  facet normal  0.000000e+000  0.000000e+000 -1.000000e+000
    outer loop
      vertex  1.179977e+002  9.260957e+001  6.222800e-014
      vertex -1.278260e+002  7.848885e+001  6.222800e-014
      vertex -1.192296e+002  9.101810e+001  6.222800e-014
    endloop
  endfacet
  facet normal  0.000000e+000  0.000000e+000 -1.000000e+000
    outer loop
      vertex  1.179977e+002  9.260957e+001  6.222800e-014
      vertex -1.192296e+002  9.101810e+001  6.222800e-014
      vertex  1.080232e+002  1.040720e+002  6.222800e-014
    endloop
  endfacet
  facet normal  0.000000e+000  0.000000e+000 -1.000000e+000
    outer loop
      vertex  1.080232e+002  1.040720e+002  6.222800e-014
      vertex -1.192296e+002  9.101810e+001  6.222800e-014
      vertex -1.094098e+002  1.026134e+002  6.222800e-014
    endloop
  endfacet
  facet normal  0.000000e+000  0.000000e+000 -1.000000e+000
    outer loop
      vertex  1.080232e+002  1.040720e+002  6.222800e-014
      vertex -1.094098e+002  1.026134e+002  6.222800e-014
      vertex  9.694016e+001  1.144666e+002  6.222800e-014
    endloop
  endfacet
  facet normal  0.000000e+000  0.000000e+000 -1.000000e+000
    outer loop
      vertex  9.694016e+001  1.144666e+002  6.222800e-014
      vertex -1.094098e+002  1.026134e+002  6.222800e-014
      vertex -9.846719e+001  1.131557e+002  6.222800e-014
    endloop
  endfacet
  facet normal  0.000000e+000  0.000000e+000 -1.000000e+000
    outer loop
      vertex  9.694016e+001  1.144666e+002  6.222800e-014
      vertex -9.846719e+001  1.131557e+002  6.222800e-014
      vertex  8.486240e+001  1.236866e+002  6.222800e-014
    endloop
  endfacet
  facet normal  0.000000e+000  0.000000e+000 -1.000000e+000
    outer loop
      vertex  8.486240e+001  1.236866e+002  6.222800e-014
      vertex -9.846719e+001  1.131557e+002  6.222800e-014
      vertex -8.651421e+001  1.225369e+002  6.222800e-014
    endloop
  endfacet
  facet normal  0.000000e+000  0.000000e+000 -1.000000e+000
    outer loop
      vertex  8.486240e+001  1.236866e+002  6.222800e-014
      vertex -8.651421e+001  1.225369e+002  6.222800e-014
      vertex  7.191383e+001  1.316374e+002  6.222800e-014
    endloop
  endfacet
  facet normal  0.000000e+000  0.000000e+000 -1.000000e+000
    outer loop
      vertex  7.191383e+001  1.316374e+002  6.222800e-014
      vertex -8.651421e+001  1.225369e+002  6.222800e-014
      vertex -7.367348e+001  1.306607e+002  6.222800e-014
    endloop
  endfacet
  facet normal  0.000000e+000  0.000000e+000 -9.999999e-001
    outer loop
      vertex  7.191383e+001  1.316374e+002  6.222800e-014
      vertex -7.367348e+001  1.306607e+002  6.222800e-014
      vertex  5.822733e+001  1.382374e+002  6.222800e-014
    endloop
  endfacet
  facet normal  0.000000e+000  0.000000e+000 -1.000000e+000
    outer loop
      vertex  5.822733e+001  1.382374e+002  6.222800e-014
      vertex -7.367348e+001  1.306607e+002  6.222800e-014
      vertex -6.007676e+001  1.374437e+002  6.222800e-014
    endloop
  endfacet
  facet normal  0.000000e+000  0.000000e+000 -1.000000e+000
    outer loop
      vertex  5.822733e+001  1.382374e+002  6.222800e-014
      vertex -6.007676e+001  1.374437e+002  6.222800e-014
      vertex  4.394334e+001  1.434189e+002  6.222800e-014
    endloop
  endfacet
  facet normal  0.000000e+000  0.000000e+000 -1.000000e+000
    outer loop
      vertex  4.394334e+001  1.434189e+002  6.222800e-014
      vertex -6.007676e+001  1.374437e+002  6.222800e-014
      vertex -4.586357e+001  1.428164e+002  6.222800e-014
    endloop
  endfacet
  facet normal  0.000000e+000  0.000000e+000 -1.000000e+000
    outer loop
      vertex  4.394334e+001  1.434189e+002  6.222800e-014
      vertex -4.586357e+001  1.428164e+002  6.222800e-014
      vertex  2.920843e+001  1.471287e+002  6.222800e-014
    endloop
  endfacet
  facet normal  0.000000e+000  0.000000e+000 -1.000000e+000
    outer loop
      vertex  2.920843e+001  1.471287e+002  6.222800e-014
      vertex -4.586357e+001  1.428164e+002  6.222800e-014
      vertex -3.117977e+001  1.467236e+002  6.222800e-014
    endloop
  endfacet
  facet normal  0.000000e+000  0.000000e+000 -1.000000e+000
    outer loop
      vertex  2.920843e+001  1.471287e+002  6.222800e-014
      vertex -3.117977e+001  1.467236e+002  6.222800e-014
      vertex  1.417380e+001  1.493288e+002  6.222800e-014
    endloop
  endfacet
  facet normal  0.000000e+000  0.000000e+000 -1.000000e+000
    outer loop
      vertex  1.417380e+001  1.493288e+002  6.222800e-014
      vertex -3.117977e+001  1.467236e+002  6.222800e-014
      vertex -1.617601e+001  1.491252e+002  6.222800e-014
    endloop
  endfacet
  facet normal  0.000000e+000  0.000000e+000 -9.999999e-001
    outer loop
      vertex  1.417380e+001  1.493288e+002  6.222800e-014
      vertex -1.617601e+001  1.491252e+002  6.222800e-014
      vertex -1.006266e+000  1.499966e+002  6.222800e-014
    endloop
  endfacet
  facet normal  4.160864e-001  8.628429e-001  2.870095e-001
    outer loop
      vertex  3.220229e-015  5.894590e-015  5.000000e+002
      vertex  7.191383e+001  1.316374e+002  6.222800e-014
      vertex  5.822733e+001  1.382374e+002  6.222800e-014
    endloop
  endfacet
  facet normal  3.266593e-001  9.005105e-001  2.870095e-001
    outer loop
      vertex  3.220229e-015  5.894590e-015  5.000000e+002
      vertex  5.822733e+001  1.382374e+002  6.222800e-014
      vertex  4.394334e+001  1.434189e+002  6.222800e-014
    endloop
  endfacet
  facet normal  2.338806e-001  9.289378e-001  2.870094e-001
    outer loop
      vertex  3.220229e-015  5.894590e-015  5.000000e+002
      vertex  4.394334e+001  1.434189e+002  6.222800e-014
      vertex  2.920843e+001  1.471287e+002  6.222800e-014
    endloop
  endfacet
  facet normal  1.387019e-001  9.478330e-001  2.870094e-001
    outer loop
      vertex  3.220229e-015  5.894590e-015  5.000000e+002
      vertex  2.920843e+001  1.471287e+002  6.222800e-014
      vertex  1.417380e+001  1.493288e+002  6.222800e-014
    endloop
  endfacet
  facet normal  4.209943e-002  9.570022e-001  2.870094e-001
    outer loop
      vertex  3.220229e-015  5.894590e-015  5.000000e+002
      vertex  1.417380e+001  1.493288e+002  6.222800e-014
      vertex -1.006266e+000  1.499966e+002  6.222800e-014
    endloop
  endfacet
  facet normal -5.493493e-002  9.563512e-001  2.870094e-001
    outer loop
      vertex  3.220229e-015  5.894590e-015  5.000000e+002
      vertex -1.006266e+000  1.499966e+002  6.222800e-014
      vertex -1.617601e+001  1.491252e+002  6.222800e-014
    endloop
  endfacet
  facet normal -1.514065e-001  9.458867e-001  2.870094e-001
    outer loop
      vertex  3.220229e-015  5.894590e-015  5.000000e+002
      vertex -1.617601e+001  1.491252e+002  6.222800e-014
      vertex -3.117977e+001  1.467236e+002  6.222800e-014
    endloop
  endfacet
  facet normal -2.463227e-001  9.257163e-001  2.870094e-001
    outer loop
      vertex  3.220229e-015  5.894590e-015  5.000000e+002
      vertex -3.117977e+001  1.467236e+002  6.222800e-014
      vertex -4.586357e+001  1.428164e+002  6.222800e-014
    endloop
  endfacet
  facet normal -3.387117e-001  8.960468e-001  2.870094e-001
    outer loop
      vertex  3.220229e-015  5.894590e-015  5.000000e+002
      vertex -4.586357e+001  1.428164e+002  6.222800e-014
      vertex -6.007676e+001  1.374437e+002  6.222800e-014
    endloop
  endfacet
  facet normal -4.276252e-001  8.571828e-001  2.870095e-001
    outer loop
      vertex  3.220229e-015  5.894590e-015  5.000000e+002
      vertex -6.007676e+001  1.374437e+002  6.222800e-014
      vertex -7.367348e+001  1.306607e+002  6.222800e-014
    endloop
  endfacet
  facet normal -5.121519e-001  8.095221e-001  2.870095e-001
    outer loop
      vertex  3.220229e-015  5.894590e-015  5.000000e+002
      vertex -7.367348e+001  1.306607e+002  6.222800e-014
      vertex -8.651421e+001  1.225369e+002  6.222800e-014
    endloop
  endfacet
  facet normal -5.914219e-001  7.535554e-001  2.870095e-001
    outer loop
      vertex  3.220229e-015  5.894590e-015  5.000000e+002
      vertex -8.651421e+001  1.225369e+002  6.222800e-014
      vertex -9.846719e+001  1.131557e+002  6.222800e-014
    endloop
  endfacet
  facet normal -6.646230e-001  6.898563e-001  2.870094e-001
    outer loop
      vertex  3.220229e-015  5.894590e-015  5.000000e+002
      vertex -9.846719e+001  1.131557e+002  6.222800e-014
      vertex -1.094098e+002  1.026134e+002  6.222800e-014
    endloop
  endfacet
  facet normal -7.310053e-001  6.190774e-001  2.870095e-001
    outer loop
      vertex  3.220229e-015  5.894590e-015  5.000000e+002
      vertex -1.094098e+002  1.026134e+002  6.222800e-014
      vertex -1.192296e+002  9.101810e+001  6.222800e-014
    endloop
  endfacet
  facet normal -7.898853e-001  5.419471e-001  2.870095e-001
    outer loop
      vertex  3.220229e-015  5.894590e-015  5.000000e+002
      vertex -1.192296e+002  9.101810e+001  6.222800e-014
      vertex -1.278260e+002  7.848885e+001  6.222800e-014
    endloop
  endfacet
  facet normal -8.406605e-001  4.592555e-001  2.870095e-001
    outer loop
      vertex  3.220229e-015  5.894590e-015  5.000000e+002
      vertex -1.278260e+002  7.848885e+001  6.222800e-014
      vertex -1.351108e+002  6.515421e+001  6.222800e-014
    endloop
  endfacet
  facet normal -8.828097e-001  3.718504e-001  2.870095e-001
    outer loop
      vertex  3.220229e-015  5.894590e-015  5.000000e+002
      vertex -1.351108e+002  6.515421e+001  6.222800e-014
      vertex -1.410091e+002  5.115099e+001  6.222800e-014
    endloop
  endfacet
  facet normal -9.158997e-001  2.806302e-001  2.870095e-001
    outer loop
      vertex  3.220229e-015  5.894590e-015  5.000000e+002
      vertex -1.410091e+002  5.115099e+001  6.222800e-014
      vertex -1.454605e+002  3.662289e+001  6.222800e-014
    endloop
  endfacet
  facet normal -9.395913e-001  1.865308e-001  2.870095e-001
    outer loop
      vertex  3.220229e-015  5.894590e-015  5.000000e+002
      vertex -1.454605e+002  3.662289e+001  6.222800e-014
      vertex -1.484193e+002  2.171899e+001  6.222800e-014
    endloop
  endfacet
  facet normal -9.536417e-001  9.051611e-002  2.870095e-001
    outer loop
      vertex  3.220229e-015  5.894590e-015  5.000000e+002
      vertex -1.484193e+002  2.171899e+001  6.222800e-014
      vertex -1.498551e+002  6.592229e+000  6.222800e-014
    endloop
  endfacet
  facet normal -9.579062e-001 -6.425926e-003  2.870094e-001
    outer loop
      vertex  3.220229e-015  5.894590e-015  5.000000e+002
      vertex -1.498551e+002  6.592229e+000  6.222800e-014
      vertex -1.497531e+002 -8.602180e+000  6.222800e-014
    endloop
  endfacet
  facet normal -9.523413e-001 -1.033035e-001  2.870094e-001
    outer loop
      vertex  3.220229e-015  5.894590e-015  5.000000e+002
      vertex -1.497531e+002 -8.602180e+000  6.222800e-014
      vertex -1.481145e+002 -2.370832e+001  6.222800e-014
    endloop
  endfacet
  facet normal -9.370041e-001 -1.991200e-001  2.870094e-001
    outer loop
      vertex  3.220229e-015  5.894590e-015  5.000000e+002
      vertex -1.481145e+002 -2.370832e+001  6.222800e-014
      vertex -1.449561e+002 -3.857118e+001  6.222800e-014
    endloop
  endfacet
  facet normal -9.120523e-001 -2.928925e-001  2.870095e-001
    outer loop
      vertex  3.220229e-015  5.894590e-015  5.000000e+002
      vertex -1.449561e+002 -3.857118e+001  6.222800e-014
      vertex -1.403102e+002 -5.303824e+001  6.222800e-014
    endloop
  endfacet
  facet normal -8.777412e-001 -3.836614e-001  2.870095e-001
    outer loop
      vertex  3.220229e-015  5.894590e-015  5.000000e+002
      vertex -1.403102e+002 -5.303824e+001  6.222800e-014
      vertex -1.342245e+002 -6.696107e+001  6.222800e-014
    endloop
  endfacet
  facet normal -8.344233e-001 -4.704927e-001  2.870095e-001
    outer loop
      vertex  3.220229e-015  5.894590e-015  5.000000e+002
      vertex -1.342245e+002 -6.696107e+001  6.222800e-014
      vertex -1.267615e+002 -8.019678e+001  6.222800e-014
    endloop
  endfacet
  facet normal -7.825433e-001 -5.524957e-001  2.870095e-001
    outer loop
      vertex  3.220229e-015  5.894590e-015  5.000000e+002
      vertex -1.267615e+002 -8.019678e+001  6.222800e-014
      vertex -1.179977e+002 -9.260957e+001  6.222800e-014
    endloop
  endfacet
  facet normal -7.226331e-001 -6.288299e-001  2.870095e-001
    outer loop
      vertex  3.220229e-015  5.894590e-015  5.000000e+002
      vertex -1.179977e+002 -9.260957e+001  6.222800e-014
      vertex -1.080232e+002 -1.040720e+002  6.222800e-014
    endloop
  endfacet
  facet normal -6.553082e-001 -6.987107e-001  2.870094e-001
    outer loop
      vertex  3.220229e-015  5.894590e-015  5.000000e+002
      vertex -1.080232e+002 -1.040720e+002  6.222800e-014
      vertex -9.694016e+001 -1.144666e+002  6.222800e-014
    endloop
  endfacet
  facet normal -5.812582e-001 -7.614227e-001  2.870094e-001
    outer loop
      vertex  3.220229e-015  5.894590e-015  5.000000e+002
      vertex -9.694016e+001 -1.144666e+002  6.222800e-014
      vertex -8.486240e+001 -1.236866e+002  6.222800e-014
    endloop
  endfacet
  facet normal -5.012448e-001 -8.163205e-001  2.870095e-001
    outer loop
      vertex  3.220229e-015  5.894590e-015  5.000000e+002
      vertex -8.486240e+001 -1.236866e+002  6.222800e-014
      vertex -7.191383e+001 -1.316374e+002  6.222800e-014
    endloop
  endfacet
  facet normal -4.160864e-001 -8.628429e-001  2.870095e-001
    outer loop
      vertex  3.220229e-015  5.894590e-015  5.000000e+002
      vertex -7.191383e+001 -1.316374e+002  6.222800e-014
      vertex -5.822733e+001 -1.382374e+002  6.222800e-014
    endloop
  endfacet
  facet normal -3.266593e-001 -9.005105e-001  2.870095e-001
    outer loop
      vertex  3.220229e-015  5.894590e-015  5.000000e+002
      vertex -5.822733e+001 -1.382374e+002  6.222800e-014
      vertex -4.394334e+001 -1.434189e+002  6.222800e-014
    endloop
  endfacet
  facet normal -2.338806e-001 -9.289378e-001  2.870094e-001
    outer loop
      vertex  3.220229e-015  5.894590e-015  5.000000e+002
      vertex -4.394334e+001 -1.434189e+002  6.222800e-014
      vertex -2.920843e+001 -1.471287e+002  6.222800e-014
    endloop
  endfacet
  facet normal -1.387019e-001 -9.478330e-001  2.870094e-001
    outer loop
      vertex  3.220229e-015  5.894590e-015  5.000000e+002
      vertex -2.920843e+001 -1.471287e+002  6.222800e-014
      vertex -1.417380e+001 -1.493288e+002  6.222800e-014
    endloop
  endfacet
  facet normal -4.209943e-002 -9.570022e-001  2.870094e-001
    outer loop
      vertex  3.220229e-015  5.894590e-015  5.000000e+002
      vertex -1.417380e+001 -1.493288e+002  6.222800e-014
      vertex  1.006266e+000 -1.499966e+002  6.222800e-014
    endloop
  endfacet
  facet normal  5.493493e-002 -9.563512e-001  2.870094e-001
    outer loop
      vertex  3.220229e-015  5.894590e-015  5.000000e+002
      vertex  1.006266e+000 -1.499966e+002  6.222800e-014
      vertex  1.617601e+001 -1.491252e+002  6.222800e-014
    endloop
  endfacet
  facet normal  1.514065e-001 -9.458867e-001  2.870094e-001
    outer loop
      vertex  3.220229e-015  5.894590e-015  5.000000e+002
      vertex  1.617601e+001 -1.491252e+002  6.222800e-014
      vertex  3.117977e+001 -1.467236e+002  6.222800e-014
    endloop
  endfacet
  facet normal  2.463227e-001 -9.257163e-001  2.870094e-001
    outer loop
      vertex  3.220229e-015  5.894590e-015  5.000000e+002
      vertex  3.117977e+001 -1.467236e+002  6.222800e-014
      vertex  4.586357e+001 -1.428164e+002  6.222800e-014
    endloop
  endfacet
  facet normal  3.387117e-001 -8.960468e-001  2.870094e-001
    outer loop
      vertex  3.220229e-015  5.894590e-015  5.000000e+002
      vertex  4.586357e+001 -1.428164e+002  6.222800e-014
      vertex  6.007676e+001 -1.374437e+002  6.222800e-014
    endloop
  endfacet
  facet normal  4.276252e-001 -8.571828e-001  2.870095e-001
    outer loop
      vertex  3.220229e-015  5.894590e-015  5.000000e+002
      vertex  6.007676e+001 -1.374437e+002  6.222800e-014
      vertex  7.367348e+001 -1.306607e+002  6.222800e-014
    endloop
  endfacet
  facet normal  5.121519e-001 -8.095221e-001  2.870095e-001
    outer loop
      vertex  3.220229e-015  5.894590e-015  5.000000e+002
      vertex  7.367348e+001 -1.306607e+002  6.222800e-014
      vertex  8.651421e+001 -1.225369e+002  6.222800e-014
    endloop
  endfacet
  facet normal  5.914219e-001 -7.535554e-001  2.870095e-001
    outer loop
      vertex  3.220229e-015  5.894590e-015  5.000000e+002
      vertex  8.651421e+001 -1.225369e+002  6.222800e-014
      vertex  9.846719e+001 -1.131557e+002  6.222800e-014
    endloop
  endfacet
  facet normal  6.646230e-001 -6.898563e-001  2.870094e-001
    outer loop
      vertex  3.220229e-015  5.894590e-015  5.000000e+002
      vertex  9.846719e+001 -1.131557e+002  6.222800e-014
      vertex  1.094098e+002 -1.026134e+002  6.222800e-014
    endloop
  endfacet
  facet normal  7.310053e-001 -6.190774e-001  2.870095e-001
    outer loop
      vertex  3.220229e-015  5.894590e-015  5.000000e+002
      vertex  1.094098e+002 -1.026134e+002  6.222800e-014
      vertex  1.192296e+002 -9.101810e+001  6.222800e-014
    endloop
  endfacet
  facet normal  7.898853e-001 -5.419471e-001  2.870095e-001
    outer loop
      vertex  3.220229e-015  5.894590e-015  5.000000e+002
      vertex  1.192296e+002 -9.101810e+001  6.222800e-014
      vertex  1.278260e+002 -7.848885e+001  6.222800e-014
    endloop
  endfacet
  facet normal  8.406605e-001 -4.592555e-001  2.870095e-001
    outer loop
      vertex  3.220229e-015  5.894590e-015  5.000000e+002
      vertex  1.278260e+002 -7.848885e+001  6.222800e-014
      vertex  1.351108e+002 -6.515421e+001  6.222800e-014
    endloop
  endfacet
  facet normal  8.828097e-001 -3.718504e-001  2.870095e-001
    outer loop
      vertex  3.220229e-015  5.894590e-015  5.000000e+002
      vertex  1.351108e+002 -6.515421e+001  6.222800e-014
      vertex  1.410091e+002 -5.115099e+001  6.222800e-014
    endloop
  endfacet
  facet normal  9.158997e-001 -2.806302e-001  2.870095e-001
    outer loop
      vertex  3.220229e-015  5.894590e-015  5.000000e+002
      vertex  1.410091e+002 -5.115099e+001  6.222800e-014
      vertex  1.454605e+002 -3.662289e+001  6.222800e-014
    endloop
  endfacet
  facet normal  9.395913e-001 -1.865308e-001  2.870095e-001
    outer loop
      vertex  3.220229e-015  5.894590e-015  5.000000e+002
      vertex  1.454605e+002 -3.662289e+001  6.222800e-014
      vertex  1.484193e+002 -2.171899e+001  6.222800e-014
    endloop
  endfacet
  facet normal  9.536417e-001 -9.051611e-002  2.870095e-001
    outer loop
      vertex  3.220229e-015  5.894590e-015  5.000000e+002
      vertex  1.484193e+002 -2.171899e+001  6.222800e-014
      vertex  1.498551e+002 -6.592229e+000  6.222800e-014
    endloop
  endfacet
  facet normal  9.579062e-001  6.425926e-003  2.870094e-001
    outer loop
      vertex  3.220229e-015  5.894590e-015  5.000000e+002
      vertex  1.498551e+002 -6.592229e+000  6.222800e-014
      vertex  1.497531e+002  8.602180e+000  6.222800e-014
    endloop
  endfacet
  facet normal  9.523413e-001  1.033035e-001  2.870094e-001
    outer loop
      vertex  3.220229e-015  5.894590e-015  5.000000e+002
      vertex  1.497531e+002  8.602180e+000  6.222800e-014
      vertex  1.481145e+002  2.370832e+001  6.222800e-014
    endloop
  endfacet
  facet normal  9.370041e-001  1.991200e-001  2.870094e-001
    outer loop
      vertex  3.220229e-015  5.894590e-015  5.000000e+002
      vertex  1.481145e+002  2.370832e+001  6.222800e-014
      vertex  1.449561e+002  3.857118e+001  6.222800e-014
    endloop
  endfacet
  facet normal  9.120523e-001  2.928925e-001  2.870095e-001
    outer loop
      vertex  3.220229e-015  5.894590e-015  5.000000e+002
      vertex  1.449561e+002  3.857118e+001  6.222800e-014
      vertex  1.403102e+002  5.303824e+001  6.222800e-014
    endloop
  endfacet
  facet normal  8.777412e-001  3.836614e-001  2.870095e-001
    outer loop
      vertex  3.220229e-015  5.894590e-015  5.000000e+002
      vertex  1.403102e+002  5.303824e+001  6.222800e-014
      vertex  1.342245e+002  6.696107e+001  6.222800e-014
    endloop
  endfacet
  facet normal  8.344233e-001  4.704927e-001  2.870095e-001
    outer loop
      vertex  3.220229e-015  5.894590e-015  5.000000e+002
      vertex  1.342245e+002  6.696107e+001  6.222800e-014
      vertex  1.267615e+002  8.019678e+001  6.222800e-014
    endloop
  endfacet
  facet normal  7.825433e-001  5.524957e-001  2.870095e-001
    outer loop
      vertex  3.220229e-015  5.894590e-015  5.000000e+002
      vertex  1.267615e+002  8.019678e+001  6.222800e-014
      vertex  1.179977e+002  9.260957e+001  6.222800e-014
    endloop
  endfacet
  facet normal  7.226331e-001  6.288299e-001  2.870095e-001
    outer loop
      vertex  3.220229e-015  5.894590e-015  5.000000e+002
      vertex  1.179977e+002  9.260957e+001  6.222800e-014
      vertex  1.080232e+002  1.040720e+002  6.222800e-014
    endloop
  endfacet
  facet normal  6.553082e-001  6.987107e-001  2.870094e-001
    outer loop
      vertex  3.220229e-015  5.894590e-015  5.000000e+002
      vertex  1.080232e+002  1.040720e+002  6.222800e-014
      vertex  9.694016e+001  1.144666e+002  6.222800e-014
    endloop
  endfacet
  facet normal  5.812582e-001  7.614227e-001  2.870094e-001
    outer loop
      vertex  3.220229e-015  5.894590e-015  5.000000e+002
      vertex  9.694016e+001  1.144666e+002  6.222800e-014
      vertex  8.486240e+001  1.236866e+002  6.222800e-014
    endloop
  endfacet
  facet normal  5.012448e-001  8.163205e-001  2.870095e-001
    outer loop
      vertex  3.220229e-015  5.894590e-015  5.000000e+002
      vertex  8.486240e+001  1.236866e+002  6.222800e-014
      vertex  7.191383e+001  1.316374e+002  6.222800e-014
    endloop
  endfacet
endsolid CATIA STL
